<svg xmlns="http://www.w3.org/2000/svg" enable-background="new 0 0 50 50" viewBox="0 0 50 50"><rect width="33.297" height="47.007" x="4.615" y="1.993" fill="#E4E4E3"/><rect width="2.448" height="1.959" x="6.811" y="3.406" fill="#696967"/><rect width="2.448" height="1.959" x="11.22" y="3.406" fill="#696967"/><rect width="2.448" height="1.959" x="15.63" y="3.406" fill="#696967"/><rect width="2.448" height="1.959" x="20.04" y="3.406" fill="#696967"/><rect width="2.448" height="1.959" x="24.449" y="3.406" fill="#696967"/><rect width="2.448" height="1.959" x="28.859" y="3.406" fill="#696967"/><rect width="2.448" height="1.959" x="33.269" y="3.406" fill="#696967"/><path fill="#696967" d="M33.9531 1c-.1353 0-.2448.1095-.2448.2448V4.385c0 .1353.1095.2448.2448.2448.1353 0 .2448-.1095.2448-.2448V1.2448C34.1979 1.1095 34.0884 1 33.9531 1zM35.0323 1c-.1353 0-.2448.1095-.2448.2448V4.385c0 .1353.1095.2448.2448.2448.1353 0 .2448-.1095.2448-.2448V1.2448C35.2771 1.1095 35.1676 1 35.0323 1zM29.5434 1c-.1353 0-.2448.1095-.2448.2448V4.385c0 .1353.1095.2448.2448.2448s.2448-.1095.2448-.2448V1.2448C29.7882 1.1095 29.6787 1 29.5434 1zM30.6227 1c-.1353 0-.2448.1095-.2448.2448V4.385c0 .1353.1095.2448.2448.2448s.2448-.1095.2448-.2448V1.2448C30.8675 1.1095 30.758 1 30.6227 1zM25.1338 1c-.1353 0-.2448.1095-.2448.2448V4.385c0 .1353.1095.2448.2448.2448s.2448-.1095.2448-.2448V1.2448C25.3786 1.1095 25.2691 1 25.1338 1zM26.213 1c-.1353 0-.2448.1095-.2448.2448V4.385c0 .1353.1095.2448.2448.2448s.2448-.1095.2448-.2448V1.2448C26.4578 1.1095 26.3483 1 26.213 1zM20.7241 1c-.1353 0-.2448.1095-.2448.2448V4.385c0 .1353.1095.2448.2448.2448s.2448-.1095.2448-.2448V1.2448C20.9689 1.1095 20.8594 1 20.7241 1zM21.8034 1c-.1353 0-.2448.1095-.2448.2448V4.385c0 .1353.1095.2448.2448.2448.1353 0 .2448-.1095.2448-.2448V1.2448C22.0482 1.1095 21.9387 1 21.8034 1zM16.3145 1c-.1353 0-.2448.1095-.2448.2448V4.385c0 .1353.1095.2448.2448.2448.1353 0 .2448-.1095.2448-.2448V1.2448C16.5593 1.1095 16.4498 1 16.3145 1zM17.3937 1c-.1353 0-.2448.1095-.2448.2448V4.385c0 .1353.1095.2448.2448.2448s.2448-.1095.2448-.2448V1.2448C17.6385 1.1095 17.529 1 17.3937 1z"/><g><path fill="#696967" d="M11.9048 1C11.7695 1 11.66 1.1095 11.66 1.2448V4.385c0 .1353.1095.2448.2448.2448s.2448-.1095.2448-.2448V1.2448C12.1496 1.1095 12.0401 1 11.9048 1zM12.9841 1c-.1353 0-.2448.1095-.2448.2448V4.385c0 .1353.1095.2448.2448.2448s.2448-.1095.2448-.2448V1.2448C13.2289 1.1095 13.1194 1 12.9841 1z"/></g><g><path fill="#696967" d="M7.4952 1C7.3598 1 7.2503 1.1095 7.2503 1.2448V4.385c0 .1353.1095.2448.2448.2448.1353 0 .2448-.1095.2448-.2448V1.2448C7.74 1.1095 7.6305 1 7.4952 1zM8.5744 1C8.4391 1 8.3296 1.1095 8.3296 1.2448V4.385c0 .1353.1095.2448.2448.2448S8.8193 4.5204 8.8193 4.385V1.2448C8.8193 1.1095 8.7097 1 8.5744 1z"/></g><g><rect width="29.379" height=".979" x="6.574" y="8.693" fill="#C7C7C7"/><rect width="29.379" height=".979" x="6.574" y="12.693" fill="#C7C7C7"/><rect width="29.379" height=".979" x="6.574" y="16.693" fill="#C7C7C7"/><rect width="29.379" height=".979" x="6.574" y="20.693" fill="#C7C7C7"/><rect width="29.379" height=".979" x="6.574" y="24.693" fill="#C7C7C7"/><rect width="29.379" height=".979" x="6.574" y="28.692" fill="#C7C7C7"/><rect width="29.379" height=".979" x="6.574" y="32.692" fill="#C7C7C7"/><rect width="29.379" height=".979" x="6.574" y="36.692" fill="#C7C7C7"/><rect width="29.379" height=".979" x="6.574" y="40.692" fill="#C7C7C7"/><rect width="29.379" height=".979" x="6.574" y="44.692" fill="#C7C7C7"/></g><g><path fill="#696967" d="M39.9099,23.7618c0,0-1.9545,2.5605-2.443,4.3103c0,0-4.5207,14.0383-10.1347,20.7673
				c-0.2791,0.3345-0.8255,0.1082-0.7863-0.3257c0.7885-8.7277,7.5184-21.851,7.5184-21.851
				c0.8919-1.5827,1.3205-4.7753,1.3205-4.7753c0.5848-3.8675,4.5116-10.892,4.5116-10.892c1.97-3.8383,3.7556-5.4207,4.7327-5.0262
				c0.9698,0.412,1.1135,2.7936-0.2075,6.9006C44.4215,12.8697,42.2311,20.6135,39.9099,23.7618z"/><path fill="#FFCA67" d="M45.229,9.6801c-0.5286-0.3114-1.1243-0.6096-1.7733-0.8784c-0.649-0.2688-1.281-0.4793-1.8749-0.6328
					c0.2133-0.2918,0.4194-0.566,0.6197-0.8016c0.5465,0.1442,1.0924,0.3394,1.6185,0.5573
					c0.5262,0.218,1.0503,0.4659,1.5386,0.7504C45.3327,8.9833,45.2845,9.3229,45.229,9.6801z"/><path fill="#FFCA67" d="M44.6142 8.0388l-4.1735 9.1827-.8068-.3342 3.542-9.4443c.093-.2491.3818-.3761.6274-.2744l.5613.2325C44.6102 7.503 44.7247 7.797 44.6142 8.0388zM38.286 26.2434c-.1637.2713-.3135.5586-.4422.8443l-3.3501-1.3876c.1111-.293.2083-.6021.2843-.9097L38.286 26.2434zM36.9735 29.5115l-3.5781-1.4821c.1665-.3523.3075-.6432.4071-.8588l3.4903 1.4458C37.2108 28.8393 37.1048 29.1447 36.9735 29.5115zM29.4904 45.8409c-.7009 1.0968-1.4165 2.1051-2.1573 3.0005-.279.3262-.8227.101-.7893-.3269.1093-1.1569.3163-2.3759.5963-3.6471.3953.1124.7972.2583 1.2005.4254C28.7441 45.4599 29.1315 45.6408 29.4904 45.8409z"/></g></svg>