<svg xmlns="http://www.w3.org/2000/svg" enable-background="new 0 0 66 66" viewBox="0 0 66 66"><path fill="#465C6A" d="M61.3,15.4H18.1c-1.2,0-2.2,1-2.2,2.2v29.6c0,1.2,1,2.2,2.2,2.2h43.2c1.2,0,2.2-1,2.2-2.2V17.6
		C63.5,16.4,62.5,15.4,61.3,15.4z"/><path fill="#3B4C56" d="M61.3,15.4H38.3v34h22.9c1.2,0,2.2-1,2.2-2.2V17.6C63.5,16.4,62.5,15.4,61.3,15.4z"/><rect width="1.7" height="11.1" x="46.4" y="12.3" fill="#E6E6E8" transform="rotate(26.288 47.26 17.867)"/><polygon fill="#E6E6E8" points="58.3 19 48.3 13.3 55.7 1.5 57.2 2.5 50.8 12.7 59.1 17.5"/><rect width="10.3" height="1.7" x="40" y="8.7" fill="#E6E6E8" transform="rotate(43.314 45.165 9.577)"/><path fill="#639C42" d="M50.8,16.5c-1.9,0.7-4-0.3-4.7-2.2c-1-2.8,1.6-5.6,4.5-4.7C53.9,10.5,54.1,15.3,50.8,16.5z"/><path fill="#1576AC" d="M57.9,2.9c0.5,1.5-0.2,3.2-1.8,3.7c-0.9,0.3-1.9,0.2-2.7-0.4C53,6,52.6,5.5,52.4,4.9
			c-0.5-1.5,0.2-3.2,1.8-3.7C54.7,1,55.4,1,55.9,1.1C56.8,1.4,57.6,2,57.9,2.9z"/><path fill="#E0B624" d="M48.4,21.3c0.7,1.9-0.3,4-2.2,4.7c-1.1,0.4-2.3,0.2-3.2-0.4c-0.6-0.4-1.2-1-1.4-1.8
			c-0.7-1.9,0.3-4,2.2-4.7c0.8-0.3,1.6-0.3,2.3,0C47.1,19.3,48,20.2,48.4,21.3z"/><path fill="#ED8F22" d="M42.7,9.9c-2,0.7-4-0.4-4.7-2.2c-1-2.9,1.7-5.6,4.5-4.7C45.8,3.9,46,8.7,42.7,9.9z"/><path fill="#D95239" d="M63.8,17.1c1.4,4-3,7.5-6.5,5.3c-4.4-2.7-1.2-9.6,3.8-8C62.3,14.8,63.3,15.7,63.8,17.1z"/><path fill="#6FAC43" d="M52,11.4c0.7,1.9-0.3,4-2.2,4.7c-0.8,0.3-1.6,0.3-2.3,0.1c-0.7-0.4-1.2-1-1.4-1.8c-1-2.8,1.6-5.6,4.5-4.7
			C51.2,10,51.7,10.6,52,11.4z"/><path fill="#1E87B7" d="M53.5,6.3c-2.7-1.9-0.7-6.1,2.5-5.2C58.6,3,56.6,7.2,53.5,6.3z"/><path fill="#FAD22C" d="M43,25.6C39.4,23.3,42,17.8,46,19C49.5,21.3,47,26.8,43,25.6z"/><path fill="#F89C1D" d="M44,4.8c1,2.9-1.7,5.6-4.5,4.7c-0.7-0.4-1.2-1-1.5-1.8c-1-2.9,1.7-5.6,4.5-4.7C43.2,3.3,43.7,4,44,4.8z"/><path fill="#E8664A" d="M62.9,16.6c1.8,5-5.6,8.6-7.4,3.4c-1.3-3.5,2.1-6.9,5.6-5.7C61.8,14.9,62.5,15.7,62.9,16.6z"/><g><path fill="#FFF" d="M31 29.5v1h-3.5v1.7h3.1v1h-3.1V35h3.6v1h-4.7v-6.6H31zM32.1 31.1h4.7V32h-4.7V31.1zM32.1 32.9h4.7v.9h-4.7V32.9zM39.5 36.1h-1.1v-6.6h1.7l2 4.1 2-4.1h1.7v6.6h-1.1v-5.1l-2.3 4.6h-.6l-2.3-4.6V36.1zM52.4 34.2l.7.7c-2 2.3-6 1-6-2.2 0-3.3 4-4.5 6.1-2.3l-.7.8c-1.7-1.6-4.2-.6-4.2 1.5C48.3 34.6 50.5 36 52.4 34.2zM55.8 30.1c.2-.2.2-.6 0-.8-.1-.1-.2-.1-.4-.1-.3 0-.5.1-.7.4l-.5-.3c.6-.8 1.5-.8 2-.4.6.5.3 1.3-.3 1.9L55 31.6h1.6v.6h-2.4v-.5C55 30.9 55.5 30.4 55.8 30.1z"/></g><g><ellipse cx="26.4" cy="33" fill="#D5B79F" rx="1.9" ry="1" transform="rotate(-78.106 26.358 33.048)"/><ellipse cx="10.2" cy="33" fill="#C6A28A" rx="1.9" ry="1" transform="scale(-1) rotate(78.106 40.735 -12.53)"/><rect width="4.9" height="6.2" x="15.9" y="40.5" fill="#C6A28A"/><rect width="2.5" height="6.2" x="15.9" y="40.5" fill="#D5B79F"/><ellipse cx="18.4" cy="32.5" fill="#D5B79F" rx="7.9" ry="9.7"/><path fill="#C6A28A" d="M18.4,22.8c-4.3,0-7.8,4.3-7.8,9.7s3.5,9.7,7.8,9.7V22.8z"/><path fill="#FFF" d="M20.9,44.1l8.4,2.6c0,0,2.9,1.1,4.1,3.7S34.8,65,34.8,65H18.4V46.1L20.9,44.1z"/><path fill="#D4D8DB" d="M15.9 44.1l-8.4 2.6c0 0-2.9 1.1-4.1 3.7S2 65 2 65h16.4V46.1L15.9 44.1zM18.4 65c4.9-9.2 3.4-19.1 3.2-20.7l1.8.6v0l5.9 1.8c0 0 2.9 1.1 4.2 3.7 1.2 2.7 1.4 14.6 1.4 14.6H18.4z"/><path fill="#D4D8DB" d="M18.4,65H2c0,0,0.2-11.9,1.4-14.6c1.2-2.7,4.1-3.7,4.1-3.7l5.8-1.8l1.9-0.6C15,45.9,13.4,55.8,18.4,65z"/><polygon fill="#1576AC" points="19.1 46.1 17.7 46.1 17.1 47.2 17.7 48.4 19.1 48.4 19.7 47.2"/><polygon fill="#1E87B7" points="19.1 46.1 18.4 46.1 18.4 48.4 19.1 48.4 19.7 47.2"/><polygon fill="#E6E6E8" points="20.9 43.3 18.4 46.1 20.3 48.3 21.7 44.4"/><polygon fill="#FFF" points="15.9 43.3 18.4 46.1 16.5 48.3 15.1 44.4"/><polygon fill="#1576AC" points="20.6 62 18.4 65 18.4 48.4 19.1 48.4"/><polygon fill="#1E87B7" points="18.4 65 16.2 62 17.7 48.4 18.4 48.4"/><g><path fill="#E6E6E8" d="M24,50.4l1,1.1C24.2,59.9,18.4,65,18.4,65c4.9-9.2,3.4-19.1,3.2-20.7c0-0.1,0-0.2,0-0.2l1.9,0.8v0
					l1.8,4.5L24,50.4z"/><path fill="#B5BABE" d="M18.4,65c0,0-5.8-5.1-6.7-13.5l1-1.1l-1.2-1l1.8-4.5v0l1.9-0.8c0,0,0,0.1,0,0.2
					C15,45.9,13.4,55.8,18.4,65z"/></g><g><path fill="#D4D8DB" d="M28 28.2c0-.4-.2-.8-.5-1 .2-.3.4-.7.4-1.1 0-1-.7-1.7-1.7-1.8 0 0 0-.1 0-.1 0-.8-.6-1.4-1.4-1.4-.3 0-.5.1-.7.2C24 22.4 23.5 22 22.9 22c-.6 0-1.1.4-1.3 1-.1 0-.2 0-.2 0-.4 0-.7.3-.7.7 0 .4.3.7.7.7 0 0 0 0 0 0-.1.2-.1.4-.1.6 0 1 .8 1.8 1.8 1.8.1 0 .2 0 .2 0 0 .1 0 .2 0 .3 0 .7.4 1.3 1 1.5 0 .1-.1.2-.1.4 0 .5.4.9.8 1 0 .1 0 .2 0 .3 0 .5.2.9.6 1.1-.1.1-.2.3-.2.5 0 .2.1.4.2.5-.1.1-.1.2-.1.3 0 .3.2.6.6.6.3 0 .6-.2.6-.6 0-.1 0-.2-.1-.3.1-.1.2-.3.2-.5 0-.1 0-.2-.1-.3.6-.1 1.1-.7 1.1-1.3 0-.4-.2-.7-.4-1C27.8 29 28 28.6 28 28.2zM16.2 23.7c0-.4-.3-.7-.7-.7-.1 0-.2 0-.2 0-.2-.6-.7-1-1.3-1-.6 0-1.1.4-1.3.9-.2-.1-.4-.2-.7-.2-.8 0-1.4.6-1.4 1.4 0 0 0 .1 0 .1-.9.1-1.7.8-1.7 1.8 0 .4.2.8.4 1.1-.3.3-.5.6-.5 1 0 .5.2.9.6 1.1-.2.2-.4.6-.4 1 0 .7.5 1.2 1.1 1.3 0 .1-.1.2-.1.3 0 .2.1.4.2.5-.1.1-.1.2-.1.3 0 .3.2.6.6.6.3 0 .6-.2.6-.6 0-.1 0-.2-.1-.3.1-.1.2-.3.2-.5 0-.2-.1-.4-.2-.5.3-.3.6-.7.6-1.1 0-.1 0-.2 0-.3.5-.1.8-.5.8-1 0-.1 0-.2-.1-.4.6-.2 1-.8 1-1.5 0-.1 0-.2 0-.3.1 0 .1 0 .2 0 1 0 1.8-.8 1.8-1.8 0-.2 0-.4-.1-.6 0 0 0 0 0 0C15.9 24.4 16.2 24.1 16.2 23.7z"/></g></g><g><path fill="#E8664A" d="M55.9,44.7H42.3c-0.9,0-1.6,0.7-1.6,1.6v17.1c0,0.9,0.7,1.6,1.6,1.6h13.6c0.6,0,1-0.4,1-1V45.7
			C56.9,45.2,56.5,44.7,55.9,44.7z"/><path fill="#D95239" d="M44,44.7h-1.6c-0.9,0-1.6,0.7-1.6,1.6v17.1c0,0.9,0.7,1.6,1.6,1.6H44V44.7z"/><path fill="#FFF" d="M54.1,56.4C54.1,56.4,54.1,56.4,54.1,56.4l-0.7-1.1c0.1-0.1,0.2-0.3,0.2-0.4c0-0.1-0.1-0.3-0.1-0.4
			l0.6-1.1c0,0,0,0,0,0c0.3,0,0.6-0.3,0.6-0.6c0-0.3-0.3-0.6-0.6-0.6c0,0,0,0,0,0l-0.6-1.1c0.1-0.1,0.1-0.2,0.1-0.4
			c0-0.3-0.3-0.6-0.6-0.6c-0.2,0-0.5,0.1-0.6,0.3h-1.3C51,50.2,50.8,50,50.5,50c-0.3,0-0.6,0.3-0.6,0.6c0,0.2,0.1,0.3,0.2,0.4
			l-0.7,1.2c0,0-0.1,0-0.1,0c-0.2,0-0.5,0.1-0.6,0.3h-1.4c-0.1-0.2-0.3-0.3-0.6-0.3c-0.3,0-0.6,0.3-0.6,0.6c0,0.2,0.1,0.3,0.2,0.4
			l-0.6,1c0,0-0.1,0-0.1,0c-0.3,0-0.6,0.3-0.6,0.6c0,0.3,0.3,0.6,0.6,0.6c0,0,0.1,0,0.1,0l0.6,1c-0.1,0.1-0.2,0.2-0.2,0.4
			c0,0.3,0.3,0.6,0.6,0.6c0.2,0,0.4-0.1,0.5-0.3h1.4c0.1,0.2,0.3,0.4,0.6,0.4c0,0,0.1,0,0.1,0l0.6,1.1c-0.1,0.1-0.1,0.2-0.1,0.4
			c0,0.3,0.3,0.6,0.6,0.6c0.3,0,0.5-0.2,0.6-0.4h1.2c0.1,0.2,0.3,0.4,0.6,0.4c0.3,0,0.6-0.3,0.6-0.6c0-0.1,0-0.2-0.1-0.3l0.7-1.2
			c0,0,0,0,0,0c0.3,0,0.6-0.3,0.6-0.6C54.7,56.7,54.4,56.4,54.1,56.4z M52.9,58.5c-0.3,0-0.5,0.2-0.6,0.4h-1.2
			c-0.1-0.2-0.3-0.4-0.6-0.4c0,0-0.1,0-0.1,0l-0.7-1.1c0.1-0.1,0.1-0.2,0.1-0.4c0-0.1,0-0.3-0.1-0.4l0.7-1.2c0,0,0,0,0,0
			c0.2,0,0.4-0.1,0.5-0.3h1.4c0.1,0.2,0.3,0.3,0.5,0.3c0,0,0,0,0,0l0.6,1.1c-0.1,0.1-0.2,0.2-0.2,0.4c0,0.2,0.1,0.3,0.2,0.4L53,58.5
			C53,58.5,52.9,58.5,52.9,58.5z M49.3,56.4c-0.2,0-0.4,0.1-0.5,0.3h-1.4c-0.1-0.3-0.3-0.4-0.6-0.4c0,0,0,0,0,0l-0.6-1.1
			c0.1-0.1,0.1-0.2,0.1-0.4s0-0.3-0.1-0.4l0.6-1.1c0,0,0,0,0,0c0.3,0,0.5-0.2,0.6-0.4h1.3c0.1,0.2,0.3,0.4,0.6,0.4c0,0,0.1,0,0.1,0
			l0.6,1.1c-0.1,0.1-0.1,0.2-0.1,0.4c0,0.1,0,0.3,0.1,0.4L49.3,56.4C49.3,56.4,49.3,56.4,49.3,56.4z M50.5,51.3
			c0.2,0,0.4-0.1,0.5-0.3h1.3c0.1,0.2,0.3,0.4,0.6,0.4c0,0,0,0,0.1,0l0.6,1c-0.1,0.1-0.2,0.2-0.2,0.4c0,0.2,0.1,0.3,0.2,0.4l-0.6,1
			c0,0,0,0-0.1,0c-0.3,0-0.5,0.2-0.6,0.4h-1.3c-0.1-0.2-0.3-0.4-0.6-0.4c0,0-0.1,0-0.1,0l-0.6-1.1c0.1-0.1,0.1-0.2,0.1-0.4
			c0-0.1,0-0.3-0.1-0.4L50.5,51.3C50.5,51.2,50.5,51.3,50.5,51.3z"/></g></svg>