<svg xmlns="http://www.w3.org/2000/svg" id="Layer_1" enable-background="new 0 0 64 64" viewBox="0 0 64 64"><path fill="#2a2f63" d="M61.33,2.09H2.67C1.2,2.09,0,3.29,0,4.76v30.7c0,1.48,1.2,2.67,2.67,2.67h3.45v22.34
		c0,0.79,0.64,1.43,1.43,1.43h5.73c0.78,0,1.43-0.64,1.43-1.43V38.14h34.56v22.34c0,0.79,0.65,1.43,1.43,1.43h5.73
		c0.79,0,1.43-0.64,1.43-1.43V38.14h3.45c1.47,0,2.67-1.19,2.67-2.67V4.76C64,3.29,62.8,2.09,61.33,2.09z M11.85,59.05H8.99V38.14
		h2.87V59.05z M55.01,59.05h-2.87V38.14h2.87V59.05z M61.13,35.27H2.87V4.95h58.27V35.27z"/><rect width="2.87" height="20.91" x="8.99" y="38.14" fill="#f16e61"/><rect width="2.87" height="20.91" x="52.15" y="38.14" fill="#f16e61"/><rect width="58.27" height="30.32" x="2.87" y="4.95" fill="#d6e9f2"/></svg>