<?xml version="1.0" encoding="UTF-8"?><!DOCTYPE svg PUBLIC "-//W3C//DTD SVG 1.1//EN" "http://www.w3.org/Graphics/SVG/1.1/DTD/svg11.dtd"><svg xmlns="http://www.w3.org/2000/svg" xmlns:xlink="http://www.w3.org/1999/xlink" version="1.1" id="Layer_1" x="0px" y="0px" width="24px" height="24px" viewBox="0 0 24 24" xml:space="preserve"><path d="M21.8 6.1L12.3.6c-.1-.1-.3-.1-.5 0L2.2 6.1c-.1.1-.2.2-.2.4v10.4c0 .9.7 1.6 1.6 1.6.9 0 1.6-.7 1.6-1.6V8L12 4l6.9 4v8.9c0 .9.7 1.6 1.6 1.6.9 0 1.6-.7 1.6-1.6V6.5c-.1-.2-.2-.3-.3-.4z"/><path d="M16.9 9.3L14.8 8c-.1-.1-.3-.1-.5 0s-.3.3-.3.4v10.4L12 20l-2-1.2V8.4c0-.1-.1-.3-.3-.4-.1-.1-.3-.1-.5 0L7.1 9.3c-.2 0-.3.2-.3.4v10.6c0 .2.1.3.2.4l4.7 2.7c.1 0 .2.1.2.1s.2 0 .2-.1l4.7-2.7c.1-.1.2-.2.2-.4V9.7c.2-.2.1-.4-.1-.4z"/><metadata><rdf:RDF xmlns:rdf="http://www.w3.org/1999/02/22-rdf-syntax-ns#" xmlns:rdfs="http://www.w3.org/2000/01/rdf-schema#" xmlns:dc="http://purl.org/dc/elements/1.1/"><rdf:Description about="https://iconscout.com/legal#licenses" dc:title="social,media,ten" dc:description="social,media,ten" dc:publisher="Iconscout" dc:date="2018-01-30" dc:format="image/svg+xml" dc:language="en"><dc:creator><rdf:Bag><rdf:li>Roundicons.com</rdf:li></rdf:Bag></dc:creator></rdf:Description></rdf:RDF></metadata></svg>