<svg xmlns="http://www.w3.org/2000/svg" xmlns:xlink="http://www.w3.org/1999/xlink" enable-background="new 0 0 82 82" viewBox="0 0 82 82"><path fill="#5A6374" d="M58.5555,74.9689c0,0.2667-0.2044,0.5334-0.5334,0.5334H23.9868c-0.5156,0-0.7378-0.6578-0.3201-0.96
			c1.36-0.6845,2.48-1.7155,3.2444-2.9689c0.2578-0.3911,0.4714-0.8178,0.6491-1.2622c0.1332-0.3289,0.2398-0.6578,0.3199-1.0044
			c0.1513-0.6222,0.24-1.28,0.24-1.9556v-8.1866h25.7689v8.1866c0,0.64,0.1068,1.2978,0.3023,1.9556
			c0.0977,0.3378,0.2222,0.6756,0.3733,1.0044c0.7823,1.8045,2.1866,3.44,3.7689,4.2311
			C58.4935,74.6489,58.5555,74.8089,58.5555,74.9689z"/><path fill="#484F5D" d="M54.1552,69.149c-0.1667-0.605-0.2664-1.2092-0.2664-1.798v-8.1866H28.1201v8.1866
			c0,0.6199-0.0818,1.2216-0.2109,1.798H54.1552z"/><path fill="#7A8190" d="M81,12.2311v47.2978c0,3.1644-2.5599,5.7244-5.7333,5.7244H6.7333C3.569,65.2533,1,62.6933,1,59.5289
			V12.2311c0-3.1644,2.569-5.7333,5.7333-5.7333h68.5334C78.4401,6.4978,81,9.0666,81,12.2311z"/><path fill="#F4F2F3" d="M6.735,63.0558c-1.9465,0-3.5301-1.5835-3.5301-3.5301V12.2295c0-1.9465,1.5835-3.5301,3.5301-3.5301
			H75.271c1.9465,0,3.5301,1.5835,3.5301,3.5301v47.2962c0,1.9465-1.5835,3.5301-3.5301,3.5301H6.735z"/><path fill="#5A6374" d="M81,57.3867v2.1422c0,3.1644-2.5599,5.7244-5.7333,5.7244H6.7333C3.569,65.2533,1,62.6933,1,59.5289
			v-2.1422H81z"/><circle cx="41" cy="61.32" r="2.778" fill="#7A8190"/><circle cx="64.409" cy="44.372" r="8.884" fill="#FFF"/><defs><circle id="a" cx="64.409" cy="44.372" r="8.884"/></defs><clipPath id="b"><use overflow="visible" xlink:href="#a"/></clipPath><g clip-path="url(#b)"><path fill="#E9E6E7" d="M55.966,54.0516h16.887l-0.4049-1.5625c-0.6306-2.391-2.7954-4.0665-5.2712-4.0665h-0.339
				c-0.1505-0.226-0.3576-0.4142-0.6023-0.546c-0.0283-0.0094-0.0471-0.0188-0.0754-0.0283
				c0.0094-0.0188,0.0094-0.0282,0.0094-0.0471V47.293c0.8848-0.593,1.5816-1.6191,1.9297-2.8804
				c0.0565,0.0282,0.1128,0.0471,0.1788,0.0471c0.3955,0,0.7437-0.5271,0.8002-1.1955c0.0377-0.4989-0.1131-0.9319-0.3484-1.1202
				c0.0942-0.6024,0.1225-1.2143,0.0094-1.8073c-0.0657-0.32-0.16-0.6212-0.3011-0.9225c-0.066-0.1506-0.1696-0.3201-0.339-0.3577
				c-0.0188-0.0659-0.0471-0.1318-0.0754-0.1977c-0.1882-0.433-0.4989-0.8189-0.8565-1.1296
				c-0.4424-0.3671-0.979-0.6024-1.5439-0.753c-0.5364-0.1318-1.0918-0.2259-1.6473-0.2353c-0.3764,0-1.1295,0.16-1.506,0.2448
				c-0.3013,0.0659-0.7437,0.2636-1.0826,0.4424c-0.734,0.3765-1.2612,1.1107-1.2895,1.9391
				c-0.0094,0.2447,0.0188,0.4989,0.1036,0.7436c-0.1225,0.0659-0.1696,0.2353-0.1884,0.3765c0,0.0282-0.0092,0.0753-0.0092,0.1506
				c-0.0188,0.4989,0.028,0.9789,0.1317,1.4684c-0.2636,0.1694-0.433,0.6212-0.3955,1.1578
				c0.0471,0.6683,0.4049,1.1955,0.7908,1.1955c0.066,0,0.1319-0.0188,0.1882-0.0471c0.3484,1.2613,1.045,2.2874,1.9297,2.8804
				v0.5553c-0.0094,0-0.0283,0-0.0377,0.0094l-0.0471,0.0188c-0.2634,0.1224-0.4798,0.3106-0.6306,0.546h-0.2919
				c-2.4755,0-4.6406,1.6755-5.2712,4.0665L55.966,54.0516z"/></g><circle cx="64.409" cy="21.682" r="9.438" fill="#FFF"/><defs><circle id="c" cx="64.409" cy="21.682" r="9.438"/></defs><clipPath id="d"><use overflow="visible" xlink:href="#c"/></clipPath><g clip-path="url(#d)"><path fill="#E9E6E7" d="M73.0533,31.2856H55.7733l1.1401-3.4599c0.45-1.37,1.73-2.3,3.1699-2.3h1.9499
				c0.1799-0.16,0.3601-0.3,0.5701-0.41v-1.19c-0.79-0.61-1.3999-1.61-1.73-2.83c-0.0601,0.04-0.1201,0.07-0.1899,0.07
				c-0.3501,0-0.71-0.46-0.8201-1.05c-0.1101-0.61,0.0798-1.12,0.4399-1.15c-0.74-2.53,0.47-3.7099,1.3401-3.38
				c0-1.06,1.1099-1.9499,2.48-1.91c1.4099,0.03,4.8198,2.22,4.6098,3.64c-0.04,0.29-0.1299,0.95-0.23,1.64
				c0.3601,0.02,0.5601,0.54,0.4502,1.16c-0.1101,0.59-0.4702,1.05-0.8101,1.05c-0.0801,0-0.1501-0.03-0.21-0.07
				c-0.3401,1.2-0.9502,2.21-1.7202,2.82v1.2c0.2002,0.11,0.3801,0.24,0.5601,0.41h1.96c1.4402,0,2.7202,0.93,3.1702,2.3
				L73.0533,31.2856z"/></g><circle cx="41.003" cy="44.372" r="9.438" fill="#FFF"/><defs><circle id="e" cx="41.003" cy="44.372" r="9.438"/></defs><clipPath id="f"><use overflow="visible" xlink:href="#e"/></clipPath><g clip-path="url(#f)"><path fill="#E9E6E7" d="M49.6468,53.9756H32.3669l1.1401-3.4599c0.45-1.37,1.73-2.3,3.1699-2.3h1.9499
				c0.1799-0.16,0.3601-0.3,0.5701-0.41v-1.19c-0.79-0.61-1.3999-1.61-1.73-2.83c-0.0601,0.04-0.1201,0.07-0.1899,0.07
				c-0.3501,0-0.71-0.46-0.8201-1.05c-0.1101-0.61,0.0798-1.12,0.4399-1.15c-0.74-2.53,0.47-3.7099,1.3401-3.38
				c0-1.06,1.1099-1.9499,2.48-1.91c1.4099,0.03,4.8198,2.22,4.6098,3.64c-0.04,0.29-0.1299,0.95-0.23,1.64
				c0.3601,0.02,0.5601,0.54,0.4502,1.16c-0.1101,0.59-0.4702,1.05-0.8101,1.05c-0.0801,0-0.1501-0.03-0.21-0.07
				c-0.3401,1.2-0.9502,2.21-1.7202,2.82v1.2c0.2002,0.11,0.3801,0.24,0.5601,0.41h1.9599c1.4402,0,2.7202,0.93,3.1702,2.3
				L49.6468,53.9756z"/></g><circle cx="17.597" cy="44.372" r="9.438" fill="#FFF"/><defs><circle id="g" cx="17.597" cy="44.372" r="9.438"/></defs><clipPath id="h"><use overflow="visible" xlink:href="#g"/></clipPath><g clip-path="url(#h)"><path fill="#E9E6E7" d="M26.8833,54.177h-18.58l0.4499-2.38c0.4302-2.27,2.4202-3.91,4.73-3.91h1.8301
				c0.1101-0.08,0.21-0.16,0.3301-0.23v-0.91c-0.8401-0.6201-1.51-1.63-1.8501-2.86c-0.0601,0.04-0.1199,0.05-0.1799,0.05
				c-0.4001,0-0.76-0.54-0.8201-1.23c-0.04-0.57,0.1499-1.06,0.4499-1.21c-0.0398-0.2401-0.0598-0.47-0.0698-0.7
				c-0.01-0.3,0.03-0.6,0.0898-0.89c0.5-2.26,1.47-3.61,3.9001-3.71c1.4399-0.07,2.5298,0.27,3.4299,1.29
				c1.4399,0.42,1.8801,2.16,1.55,4.17c0.1799,0.23,0.28,0.62,0.25,1.05c-0.05,0.69-0.4199,1.23-0.8201,1.23
				c-0.0601,0-0.1301-0.0099-0.1799-0.04c-0.3501,1.23-1.01,2.24-1.8501,2.86v0.9c0.1201,0.07,0.23,0.14,0.3301,0.23h1.8398
				c2.31,0,4.3,1.64,4.7202,3.91L26.8833,54.177z"/></g><circle cx="17.597" cy="21.682" r="9.438" fill="#FFF"/><defs><circle id="i" cx="17.597" cy="21.682" r="9.438"/></defs><clipPath id="j"><use overflow="visible" xlink:href="#i"/></clipPath><g clip-path="url(#j)"><path fill="#E9E6E7" d="M26.9866,32.0385H8.2067l0.4499-2.41c0.4399-2.29,2.4399-3.96,4.78-3.96h1.8701
				c0.0999-0.09,0.21-0.16,0.3198-0.23v-0.91c-0.8501-0.62-1.52-1.65-1.8799-2.8899c-0.0601,0.03-0.1201,0.04-0.1802,0.04
				c-0.3999,0-0.77-0.54-0.8198-1.23c-0.05-0.58,0.1399-1.08,0.4499-1.24c-0.04-0.24-0.0601-0.47-0.0701-0.6999
				c-0.01-0.3,0.03-0.6,0.0901-0.9c0.5-2.28,1.48-3.65,3.9399-3.75c1.4499-0.07,2.56,0.28,3.4599,1.31
				c1.46,0.42,1.9099,2.19,1.5701,4.21c0.1899,0.23,0.29,0.62,0.26,1.07c-0.05,0.69-0.4202,1.23-0.8301,1.23
				c-0.0598,0-0.1199-0.01-0.1799-0.04c-0.3501,1.24-1.02,2.2599-1.8701,2.8899v0.91c0.1101,0.07,0.2202,0.14,0.3201,0.23h1.8701
				c2.3398,0,4.3398,1.67,4.78,3.96L26.9866,32.0385z"/></g><circle cx="41.003" cy="21.682" r="9.438" fill="#FFF"/><defs><circle id="k" cx="41.003" cy="21.682" r="9.438"/></defs><clipPath id="l"><use overflow="visible" xlink:href="#k"/></clipPath><g clip-path="url(#l)"><path fill="#E9E6E7" d="M46.0095,22.9754c0.0193,0.2127,0.1243,0.4199,0.2845,0.5001c-0.5443,0.0967-1.1189-0.337-1.4532-0.9338
				c-0.1298,0.3371-0.384,0.5664-0.6713,0.5664h-0.0083c-0.3619,1.0609-1.0388,1.9229-1.8842,2.4202v1.6024h1.4394
				c0.1851,0,0.3619,0.0138,0.5415,0.0387c1.4946,0.1962,2.7931,1.1631,3.3954,2.5721l0.3785,0.8841l0.5333,1.2488H32.6379
				l0.9145-2.1328c0.0359-0.0829,0.0718-0.163,0.1132-0.2404c0.0194-0.0442,0.0414-0.0884,0.0691-0.1298
				c0.0249-0.0497,0.0525-0.0995,0.0829-0.1464c0.0221-0.0387,0.0442-0.0773,0.0718-0.116c0.0166-0.0276,0.0332-0.058,0.0552-0.0856
				c0.0332-0.0497,0.0663-0.0995,0.1023-0.1464c0.0028-0.0028,0.0055-0.0055,0.0083-0.011
				c0.0994-0.1354,0.2044-0.2625,0.3177-0.3813c0.0083-0.0083,0.0166-0.0166,0.0248-0.0249
				c0.0249-0.0276,0.0525-0.0552,0.0801-0.0773c0.0415-0.047,0.0857-0.0884,0.1299-0.1271
				c0.0221-0.0193,0.0442-0.0414,0.0691-0.0608c0.0497-0.0442,0.0994-0.0884,0.1519-0.1271
				c0.4807-0.384,1.0443-0.6631,1.6521-0.8122c0.3316-0.0829,0.6742-0.1243,1.025-0.1243h1.4228v-1.6024
				c-0.8454-0.4973-1.5223-1.3593-1.8842-2.4202h-0.0083c-0.4254,0-0.768-0.4918-0.768-1.0968c0-0.4144,0.1603-0.7736,0.3979-0.9587
				c-0.0249-0.1989-0.0359-0.4061-0.0359-0.6133c0-2.5859,1.7792-4.6856,3.9728-4.6856c0.0469,0,0.0939,0,0.1409,0.0028
				c0.1823-0.2404,0.3951-0.4559,0.6327-0.641c0.6326-0.4945,1.3951-0.7432,2.1604-0.7432c0.6741,0,1.3482,0.1906,1.9367,0.5802
				l0.1381,0.0939c0.431,0.279,0.8123,0.6382,1.0886,1.0692c0.1049,0.1575,0.1961,0.3315,0.2652,0.5111
				c0.2017,0.5249,0.1934,1.1161,0.1215,1.6659c-0.0663,0.547-0.1961,1.0775-0.2183,1.6355
				c-0.0277,0.6133,0.0967,1.3068,0.6796,1.5858c0.094,0.0442,0.1934,0.0718,0.2956,0.0801
				c0.4807,0.0359,0.8758-0.3039,1.1493-0.7432c-0.0028,0.1934-0.0221,0.4559-0.0525,0.7045
				c-0.0912,0.7432-0.4531,1.3676-0.9891,1.6714c0,0-0.0028,0.0028-0.0082,0.0055c-0.1852,0.1022-0.3758,0.1906-0.583,0.2293
				C46.9046,23.5446,46.3797,23.3733,46.0095,22.9754z"/></g><g><path fill="#61BA72" d="M9.4234,27.0913c-0.5645,0-1.0615-0.3818-1.209-0.9268l-0.9834-3.6719
			c-0.0869-0.3223-0.042-0.6602,0.125-0.9492s0.4365-0.4961,0.7598-0.583l17.3311-4.6445c0.6553-0.1758,1.3564,0.2344,1.5322,0.8838
			l0.9834,3.6719c0.0869,0.3223,0.042,0.6602-0.125,0.9492s-0.4365,0.4961-0.7598,0.583L9.7467,27.0483
			C9.6402,27.0766,9.5318,27.0913,9.4234,27.0913z M25.7701,17.0737c-0.0391,0-0.0781,0.0059-0.1162,0.0156L8.3229,21.7338
			c-0.1162,0.0313-0.2139,0.1055-0.2734,0.21c-0.0605,0.1045-0.0762,0.2256-0.0449,0.3418l0.9834,3.6709
			c0.0625,0.2334,0.3135,0.3789,0.5518,0.3184l17.3311-4.6445c0.2402-0.0645,0.3828-0.3115,0.3184-0.5518l-0.9834-3.6709
			C26.1529,17.2114,25.9732,17.0737,25.7701,17.0737z"/></g><g><path fill="#61BA72" d="M10.8063 24.0756l-.9785.2617-.0654.502-.5.1338.374-2.3594.4824-.1289 1.5068 1.8545-.5107.1377L10.8063 24.0756zM10.5533 23.7456l-.5498-.7168-.1191.8965L10.5533 23.7456zM12.2135 24.0707c-.1982-.0459-.3691-.1396-.5127-.2783-.1445-.1396-.2441-.3125-.2998-.5215s-.0576-.4092-.002-.6016c.0557-.1914.1572-.3584.3057-.499.1484-.1396.3311-.2383.5479-.2959.1826-.0488.3564-.0615.5205-.0371.165.0244.3145.084.4463.1777l-.2354.373c-.1865-.126-.3848-.1611-.5957-.1045-.1309.0352-.2402.0947-.3262.1787-.0879.085-.1455.1865-.1758.3037-.0303.1182-.0273.2412.0078.373.0352.1299.0938.2393.1797.3262.085.0869.1855.1445.3037.1748.1162.0293.2422.0273.3721-.0078.2109-.0566.3652-.1875.4629-.3916l.3906.2051c-.0664.1484-.166.2754-.2988.3799-.1309.1035-.2881.1797-.4707.2285C12.6188 24.1127 12.4127 24.1186 12.2135 24.0707zM14.3756 23.4916c-.1982-.0459-.3691-.1396-.5127-.2793-.1445-.1387-.2441-.3125-.3008-.5205-.0557-.21-.0566-.4092-.001-.6025.0557-.1914.1572-.3574.3057-.498s.3311-.2383.5479-.2969c.1826-.0488.3564-.0605.5205-.0371.165.0254.3145.085.4463.1777l-.2354.373c-.1865-.125-.3848-.1602-.5957-.1035-.1309.0352-.2402.0947-.3271.1787-.0869.085-.1455.1865-.1748.3027-.0303.1182-.0273.2422.0078.374.0352.1299.0938.2383.1797.3252.084.0869.1855.1455.3027.1758.1172.0293.2432.0264.373-.0078.2109-.0566.3652-.1885.4629-.3916l.3906.2051c-.0674.1484-.167.2754-.2988.3799-.1309.1025-.2881.1797-.4707.2285C14.7809 23.5327 14.5748 23.5385 14.3756 23.4916zM17.7115 22.2905l.1055.3906-1.6328.4375-.5654-2.1074 1.5938-.4277.1055.3916-1.1094.2969.123.458.9795-.2617.1025.3789-.9805.2617.1309.4883L17.7115 22.2905zM19.0641 20.187c.1543.0254.2832.0859.3887.1807.1045.0947.1777.2197.2207.376.041.1543.0391.3008-.0029.4355-.0439.1348-.126.252-.2471.3496-.1211.0986-.2754.1719-.4619.2227l-.4248.1133.1563.5811-.4883.1309-.5645-2.1074.9121-.2441C18.7389 20.1752 18.9098 20.1625 19.0641 20.187zM19.1363 21.1762c.0605-.083.0742-.1826.043-.2998-.0322-.1182-.0938-.1992-.1875-.2422s-.2129-.0439-.3594-.0049l-.3984.1064.1963.7314.3975-.1064C18.9742 21.3217 19.0777 21.2602 19.1363 21.1762zM20.3014 20.1821l-.6748.1807-.1064-.3975 1.8369-.4922.1064.3975-.6748.1807.459 1.71-.4883.1309L20.3014 20.1821zM23.7105 20.6821l.1055.3906-1.6318.4375-.5654-2.1074 1.5938-.4268.1045.3916-1.1084.2969.123.458.9785-.2617.1016.3789-.9785.2617.1309.4883L23.7105 20.6821zM23.6393 18.8618l.958-.2568c.2285-.0615.4424-.0713.6406-.0313.2002.04.3691.126.5098.2588.1396.1318.2383.3037.2949.5156.0566.21.0566.4072.002.5928-.0557.1846-.1582.3438-.3115.4785-.1514.1348-.3418.2314-.5713.293l-.957.2568L23.6393 18.8618zM25.0309 20.3178c.21-.0557.3623-.1592.457-.3105.0938-.1504.1133-.3281.0605-.5273-.0547-.2012-.1602-.3428-.3164-.4268-.1572-.084-.3418-.0977-.5518-.042l-.4463.1201.3506 1.3066L25.0309 20.3178z"/></g><g><path fill="#61BA72" d="M32.8297,27.0913c-0.5645,0-1.0615-0.3818-1.209-0.9268l-0.9834-3.6719
			c-0.0869-0.3223-0.042-0.6602,0.125-0.9492s0.4365-0.4961,0.7598-0.583l17.3311-4.6445c0.6563-0.1758,1.3564,0.2344,1.5322,0.8838
			l0.9834,3.6719c0.0869,0.3223,0.042,0.6602-0.125,0.9492s-0.4365,0.4961-0.7598,0.583l-17.3311,4.6445
			C33.0475,27.0766,32.9381,27.0913,32.8297,27.0913z M49.1764,17.0737c-0.0391,0-0.0781,0.0059-0.1162,0.0156l-17.3311,4.6445
			c-0.1162,0.0313-0.2139,0.1055-0.2734,0.21c-0.0605,0.1045-0.0762,0.2256-0.0449,0.3418l0.9834,3.6709
			c0.0625,0.2344,0.3164,0.3799,0.5518,0.3184l17.3311-4.6445c0.2402-0.0645,0.3828-0.3115,0.3184-0.5518l-0.9834-3.6709
			C49.5592,17.2114,49.3795,17.0737,49.1764,17.0737z"/></g><g><path fill="#61BA72" d="M34.2125 24.0756l-.9785.2617-.0654.502-.5.1348.374-2.3604.4824-.1299 1.5078 1.8564-.5117.1367L34.2125 24.0756zM33.9596 23.7465l-.5498-.7178-.1182.8965L33.9596 23.7465zM35.6207 24.0717c-.1992-.0469-.3701-.1396-.5137-.2793-.1445-.1387-.2441-.3135-.2998-.5215-.0557-.209-.0576-.4092-.001-.6025.0547-.1914.1563-.3584.3047-.498s.332-.2383.5488-.2969c.1816-.0488.3555-.0605.5205-.0361.165.0254.3135.084.4463.1777l-.2363.3721c-.1865-.126-.3848-.1602-.5957-.1035-.1299.0342-.2402.0947-.3262.1787-.0879.085-.1455.1855-.1758.3037-.0293.1182-.0273.2422.0078.373.0352.1299.0947.2383.1797.3252.085.0879.1855.1465.3037.1758.1172.0293.2422.0273.3721-.0068.2109-.0566.3652-.1885.4629-.3926l.3906.2041c-.0664.1504-.166.2764-.2988.3809-.1309.1035-.2881.1807-.4707.2295C36.026 24.1127 35.8189 24.1176 35.6207 24.0717zM37.7828 23.4926c-.1992-.0479-.3701-.1396-.5137-.2793-.1445-.1396-.2441-.3135-.2998-.5215-.0557-.209-.0576-.4092-.001-.6025.0547-.1914.1563-.3584.3047-.498s.332-.2383.5488-.2969c.1816-.0488.3555-.0605.5205-.0361.1641.0254.3135.083.4463.1777l-.2363.3721c-.1865-.126-.3848-.1602-.5957-.1035-.1299.0342-.2402.0938-.3262.1777-.0879.0859-.1455.1865-.1758.3047-.0293.1182-.0273.2422.0078.373.0352.1289.0947.2383.1797.3252.085.0879.1855.1455.3037.1758.1172.0293.2422.0273.3721-.0068.2109-.0566.3652-.1885.4629-.3926l.3906.2041c-.0674.1494-.167.2764-.2988.3799-.1309.1045-.2881.1816-.4707.2305C38.1881 23.5336 37.9811 23.5385 37.7828 23.4926zM41.1188 22.2895l.1045.3916-1.6318.4375-.5654-2.1084 1.5928-.4268.1055.3916-1.1084.2969.1221.458.9805-.2627.1016.3799-.9795.2627.1299.4873L41.1188 22.2895zM42.4703 20.1879c.1543.0244.2842.085.3887.1787.1045.0947.1787.2207.2207.377.041.1553.04.2998-.0029.4355s-.126.252-.2471.3496-.2754.1729-.4609.2227l-.4258.1143.1563.5811-.4883.1309-.5645-2.1094.9121-.2441C42.1451 20.1743 42.316 20.1616 42.4703 20.1879zM42.5436 21.1772c.0596-.084.0732-.1836.042-.3008s-.0938-.1992-.1875-.2422c-.0928-.042-.2129-.0439-.3594-.0039l-.3984.1064.1963.7305.3984-.1064C42.3814 21.3207 42.484 21.2602 42.5436 21.1772zM43.7076 20.1831l-.6748.1807-.1064-.3984 1.8369-.4922.1064.3984-.6748.1807.459 1.71-.4883.1299L43.7076 20.1831zM47.1168 20.6821l.1055.3916-1.6318.4375-.5654-2.1084 1.5938-.4268.1045.3906-1.1084.2979.123.458.9785-.2627.1025.3799-.9795.2627.1309.4873L47.1168 20.6821zM47.0455 18.8608l.958-.2559c.2285-.0615.4434-.0713.6416-.0322.2002.041.3682.1279.5088.2588.1396.1328.2383.3047.2949.5156s.0566.4092.002.5938c-.0557.1836-.1582.3447-.3105.4785s-.3428.2324-.5723.293l-.957.2568L47.0455 18.8608zM48.4371 20.3178c.2109-.0566.3633-.1592.457-.3096.0938-.1514.1143-.3281.0605-.5283-.0537-.2012-.1602-.3438-.3164-.4268-.1572-.084-.3408-.0977-.5508-.041l-.4463.1201.3506 1.3047L48.4371 20.3178z"/></g><g><path fill="#61BA72" d="M56.235,49.7807c-0.5645,0-1.0615-0.3809-1.208-0.9277l-0.9834-3.6709
			c-0.0869-0.3223-0.043-0.6592,0.125-0.9482c0.167-0.29,0.4365-0.4971,0.7598-0.583l17.3311-4.6445
			c0.6572-0.1738,1.3574,0.2324,1.5322,0.8848l0.9834,3.6709c0.0869,0.3223,0.043,0.6592-0.125,0.9482
			c-0.167,0.29-0.4365,0.4971-0.7598,0.583l-17.3311,4.6445C56.4537,49.7661,56.3443,49.7807,56.235,49.7807z M72.5846,39.7641
			c-0.04,0-0.0791,0.0049-0.1182,0.0156l-17.3311,4.6445c-0.1162,0.0313-0.2139,0.1055-0.2734,0.21
			c-0.0605,0.1035-0.0762,0.2246-0.0449,0.3398l0.9834,3.6719c0.0635,0.2344,0.3174,0.3867,0.5508,0.3184l17.332-4.6445
			c0.1162-0.0313,0.2139-0.1055,0.2734-0.21c0.0605-0.1035,0.0762-0.2246,0.0449-0.3398l-0.9834-3.6719
			C72.9654,39.9018,72.7867,39.7641,72.5846,39.7641z"/></g><g><path fill="#61BA72" d="M57.6188 46.7651l-.9785.2627-.0654.502-.5.1338.374-2.3594.4824-.1299 1.5078 1.8564-.5117.1367L57.6188 46.7651zM57.3668 46.437l-.5508-.7178-.1182.8965L57.3668 46.437zM59.027 46.7622c-.1992-.0479-.3701-.1396-.5137-.2793-.1445-.1396-.2441-.3125-.2998-.5215s-.0576-.4092-.001-.6025c.0547-.1914.1563-.3584.3047-.4971.1484-.1406.332-.2393.5488-.2969.1816-.0488.3555-.0615.5205-.0371.165.0254.3135.083.4463.1777l-.2363.373c-.1865-.126-.3848-.1611-.5957-.1045-.1299.0352-.2402.0938-.3262.1777-.0879.0859-.1455.1865-.1758.3047-.0293.1182-.0273.2422.0078.373.0352.1289.0947.2383.1797.3262.085.0869.1855.1445.3037.1748.1172.0293.2422.0273.3721-.0068.2109-.0566.3652-.1885.4629-.3926l.3906.2041c-.0664.1494-.166.2773-.2988.3799-.1309.1045-.2881.1816-.4707.2305C59.4322 46.8032 59.2252 46.8081 59.027 46.7622zM61.1891 46.1831c-.1992-.0479-.3701-.1406-.5137-.2793-.1445-.1396-.2441-.3125-.2998-.5215s-.0576-.4102-.001-.6025c.0547-.1924.1563-.3584.3047-.4971.1484-.1406.332-.2393.5488-.2969.1816-.0488.3555-.0625.5205-.0371s.3135.083.4463.1777l-.2363.373c-.1865-.126-.3848-.1611-.5957-.1045-.1299.0352-.2402.0938-.3262.1777-.0879.085-.1455.1865-.1758.3047-.0293.1182-.0273.2412.0078.3721.0352.1299.0947.2383.1797.3271.085.0869.1855.1445.3037.1748.1172.0293.2422.0273.3721-.0078.2109-.0566.3652-.1875.4629-.3916l.3906.2041c-.0664.1494-.166.2773-.2988.3799-.1309.1045-.2881.1807-.4707.2305C61.5943 46.2241 61.3873 46.229 61.1891 46.1831zM64.525 44.9799l.1045.3916-1.6318.4375-.5654-2.1084 1.5928-.4277.1055.3926-1.1084.2969.123.459.9795-.2627.1016.3789-.9795.2627.1309.4873L64.525 44.9799zM65.8766 42.8784c.1543.0254.2842.085.3896.1787.1035.0947.1777.2207.2197.3779.041.1543.04.2988-.002.4346-.0439.1357-.126.2529-.248.3486-.1211.0986-.2754.1738-.4609.2236l-.4258.1143.1563.5801-.4873.1309-.5654-2.1084.9121-.2441C65.5514 42.8647 65.7223 42.852 65.8766 42.8784zM65.9498 43.8676c.0596-.084.0732-.1846.042-.3008-.0313-.1182-.0938-.1992-.1875-.2422-.0938-.042-.2129-.0439-.3594-.0049l-.3984.1074.1963.7305.3984-.1074C65.7877 44.0112 65.8902 43.9506 65.9498 43.8676zM67.1139 42.8725l-.6748.1816-.1064-.3984 1.8369-.4922.1064.3984-.6748.1797.459 1.7109-.4883.1309L67.1139 42.8725zM70.523 43.3725l.1055.3916-1.6318.4365-.5654-2.1074 1.5938-.4277.1045.3916-1.1084.2979.123.459.9785-.2627.1025.3789-.9795.2627.1309.4863L70.523 43.3725zM70.4518 41.5512l.958-.2568c.2285-.0605.4434-.0703.6416-.0303.2002.04.3682.126.5088.2578.1396.1328.2383.3047.2949.5156s.0566.4092.002.5928c-.0557.1846-.1582.3457-.3105.4795-.1523.1348-.3428.2314-.5723.293l-.957.2568L70.4518 41.5512zM71.8434 43.0092c.2109-.0566.3633-.1602.457-.3105.0938-.1523.1143-.3281.0605-.5283-.0537-.2012-.1602-.3438-.3164-.4268-.1572-.084-.3408-.0977-.5508-.041l-.4463.1191.3506 1.3066L71.8434 43.0092z"/></g><g><path fill="#61BA72" d="M9.4215,49.7807c-0.5635,0-1.0605-0.3809-1.207-0.9277l-0.9834-3.6709
			c-0.0869-0.3223-0.043-0.6592,0.125-0.9482c0.167-0.29,0.4365-0.4971,0.7598-0.583l17.3311-4.6445
			c0.6494-0.1748,1.3574,0.2314,1.5322,0.8848l0.9834,3.6709c0.0869,0.3223,0.043,0.6592-0.125,0.9482
			c-0.167,0.29-0.4365,0.4971-0.7598,0.583L9.7467,49.7377C9.6402,49.7661,9.5309,49.7807,9.4215,49.7807z M25.7711,39.7641
			c-0.0391,0-0.0781,0.0049-0.1162,0.0156l-17.332,4.6445c-0.1162,0.0313-0.2139,0.1055-0.2734,0.21
			c-0.0605,0.1035-0.0762,0.2246-0.0449,0.3398l0.9834,3.6719c0.0635,0.2354,0.3154,0.3828,0.5518,0.3184l17.3311-4.6445
			c0.1162-0.0313,0.2139-0.1055,0.2734-0.21c0.0605-0.1035,0.0762-0.2246,0.0449-0.3398l-0.9834-3.6719
			C26.1529,39.9018,25.9742,39.7641,25.7711,39.7641z"/></g><g><path fill="#61BA72" d="M10.8063 46.7651l-.9785.2627-.0664.502-.499.1338.374-2.3604.4814-.1289 1.5088 1.8564-.5127.1367L10.8063 46.7651zM10.5533 46.436l-.5508-.7168-.1182.8965L10.5533 46.436zM12.2135 46.7612c-.1982-.0469-.3691-.1387-.5137-.2783-.1436-.1396-.2432-.3125-.2988-.5215-.0566-.209-.0576-.4092-.002-.6016s.1563-.3594.3047-.499c.1494-.1396.333-.2383.5488-.2959.1826-.0498.3564-.0615.5215-.0371s.3135.084.4463.1777l-.2363.373c-.1865-.126-.3848-.1611-.5957-.1045-.1309.0352-.2393.0947-.3262.1787s-.1455.1865-.1758.3037c-.0293.1172-.0273.2412.0078.3721s.0947.2383.1797.3271c.085.0869.1855.1445.3037.1748.1172.0293.2422.0273.3721-.0078.2109-.0566.3652-.1875.4629-.3916l.3906.2041c-.0674.1494-.167.2764-.2988.3799-.1309.1045-.2881.1816-.4707.2305C12.6188 46.8022 12.4127 46.809 12.2135 46.7612zM14.3756 46.1821c-.1982-.0469-.3691-.1396-.5137-.2783-.1436-.1396-.2432-.3125-.2988-.5215-.0566-.209-.0576-.4092-.002-.6016s.1563-.3594.3047-.499c.1494-.1396.332-.2383.5488-.2959.1826-.0498.3564-.0615.5215-.0381.165.0254.3135.085.4463.1787l-.2354.3721c-.1875-.125-.3857-.1602-.5967-.1035-.1299.0342-.2393.0947-.3262.1787s-.1455.1865-.1758.3027c-.0293.1182-.0273.2422.0078.373s.0947.2383.1797.3262.1855.1455.3037.1758c.1172.0293.2422.0273.3721-.0078.2109-.0566.3643-.1875.4639-.3926l.3896.2051c-.0664.1494-.167.2764-.2979.3799-.1318.1045-.2891.1807-.4717.2295C14.7809 46.2231 14.5748 46.2299 14.3756 46.1821zM17.7125 44.9799l.1055.3906-1.6328.4375-.5654-2.1084 1.5938-.4268.1045.3916-1.1084.2969.123.459.9795-.2627.1016.3789-.9795.2627.1309.4873L17.7125 44.9799zM19.0641 42.8774c.1543.0254.2842.0859.3896.1797.1045.0947.1777.2197.2197.377.042.1543.04.2998-.002.4355-.0439.1348-.126.252-.248.3486-.1211.0986-.2744.1729-.4609.2227l-.4248.1143.1553.5811-.4873.1309-.5654-2.1084.9131-.2451C18.7398 42.8637 18.9098 42.852 19.0641 42.8774zM19.1373 43.8666c.0596-.084.0732-.1836.042-.2998-.0313-.1182-.0938-.2002-.1875-.2422-.0928-.043-.2129-.0439-.3594-.0049l-.3975.1064.1963.7314.3975-.1064C18.9752 44.0122 19.0787 43.9506 19.1373 43.8666zM20.3023 42.8725l-.6748.1807-.1064-.3984 1.8359-.4922.1074.3984-.6748.1807.458 1.71-.4873.1309L20.3023 42.8725zM23.7115 43.3715l.1045.3916-1.6309.4375-.5654-2.1084 1.5928-.4268.1055.3916-1.1084.2969.1221.459.9795-.2627.1016.3789-.9795.2627.1309.4873L23.7115 43.3715zM23.6402 41.5512l.957-.2568c.2295-.0615.4434-.0703.6416-.0313.2002.04.3682.127.5088.2588.1406.1328.2393.3047.2959.5156.0557.2109.0566.4082.002.5928-.0557.1846-.1592.3447-.3115.4785-.1523.1357-.3418.2324-.5713.2939l-.958.2568L23.6402 41.5512zM25.0309 43.0092c.2109-.0566.3633-.1602.457-.3115s.1143-.3271.0605-.5283c-.0537-.1992-.1592-.3428-.3164-.4268-.1572-.083-.3408-.0967-.5508-.04l-.4463.1191.3506 1.3066L25.0309 43.0092z"/></g><g><path fill="#EC5B53" d="M32.8287,49.7807c-0.5645,0-1.0615-0.3809-1.208-0.9277l-0.9834-3.6709
			c-0.0869-0.3223-0.043-0.6592,0.125-0.9482c0.167-0.29,0.4365-0.4971,0.7598-0.583l17.3311-4.6445
			c0.6504-0.1748,1.3574,0.2314,1.5322,0.8848l0.9834,3.6709c0.0869,0.3223,0.043,0.6592-0.125,0.9482
			c-0.167,0.29-0.4365,0.4971-0.7598,0.583l-17.3311,4.6445C33.0475,49.7661,32.9381,49.7807,32.8287,49.7807z M49.1773,39.7641
			c-0.0391,0-0.0781,0.0049-0.1162,0.0156l-17.332,4.6445c-0.1162,0.0313-0.2139,0.1055-0.2734,0.21
			c-0.0605,0.1035-0.0762,0.2246-0.0449,0.3398l0.9834,3.6719c0.0625,0.2344,0.3164,0.3867,0.5508,0.3184l17.332-4.6445
			c0.1162-0.0313,0.2139-0.1055,0.2734-0.21c0.0605-0.1035,0.0762-0.2246,0.0449-0.3398l-0.9834-3.6719
			C49.5592,39.9018,49.3805,39.7641,49.1773,39.7641z"/></g><g><path fill="#F26D5B" d="M34.648 47.1342l-.5645-.4795-.0234.0068-.4248.1133.1572.5879-.4873.1309-.5654-2.1084.9121-.2441c.1865-.0498.3574-.0625.5117-.0381.1543.0254.2832.0859.3887.1807.1045.0947.1787.2197.2207.376s.04.3027-.0049.4355c-.0449.1338-.1279.25-.251.3477l.6543.5508L34.648 47.1342zM34.0914 45.5502c-.0938-.043-.2129-.0439-.3594-.0049l-.3975.1064.1963.7354.3984-.1064c.1465-.0391.249-.1016.3076-.1875.0596-.084.0732-.1836.042-.3008C34.2467 45.6743 34.1852 45.5932 34.0914 45.5502zM37.0445 46.0717l.1055.3916-1.6318.4375-.5654-2.1084 1.5938-.4268.1045.3916-1.1084.2969.123.458.9785-.2627.1016.3789-.9785.2627.1309.4883L37.0445 46.0717zM37.5221 46.3168c-.1338-.0225-.252-.0713-.3545-.1494l.1836-.3975c.1563.124.3076.167.4541.1279.1982-.0537.2666-.1973.2041-.4307l-.2695-1.002-.7402.1982-.1045-.3916 1.2256-.3281.3662 1.3672c.0693.2588.0576.4697-.0361.6338-.0938.165-.2656.2793-.5137.3457C37.7945 46.3286 37.6559 46.3374 37.5221 46.3168zM40.6939 45.0932l.1055.3926-1.6318.4365-.5654-2.1084 1.5928-.4268.1055.3916-1.1084.2969.123.458.9785-.2617.1025.3789-.9795.2617.1309.4883L40.6939 45.0932zM41.5807 45.1635c-.1982-.0459-.3701-.1387-.5137-.2783s-.2432-.3125-.2998-.5205c-.0557-.21-.0566-.4102-.001-.6025.0547-.1914.1563-.3584.3057-.499.1484-.1396.3311-.2383.5479-.2959.1816-.0488.3555-.0615.5205-.0361.165.0234.3145.083.4463.1777l-.2354.3721c-.1865-.126-.3848-.1611-.5957-.1045-.1309.0352-.2402.0947-.3271.1787-.0869.085-.1455.1865-.1748.3037-.0303.1191-.0273.2412.0078.373.0342.1299.0938.2383.1787.3262.085.0869.1855.1445.3037.1748.1172.0293.2422.0273.373-.0078.2109-.0566.3652-.1875.4629-.3916l.3906.2051c-.0674.1484-.167.2754-.2988.3809-.1309.1025-.2891.1797-.4707.2285C41.9859 45.2045 41.7789 45.2114 41.5807 45.1635zM43.3463 42.9692l-.6748.1807-.1064-.3975 1.8369-.4922.1064.3975-.6748.1807.459 1.7109-.4883.1309L43.3463 42.9692zM46.7555 43.4692l.1055.3916-1.6318.4375-.5654-2.1084 1.5938-.4268.1045.3916-1.1084.2969.123.458.9785-.2627.1016.3789-.9785.2627.1309.4883L46.7555 43.4692zM46.6842 41.6489l.958-.2568c.2285-.0615.4424-.0723.6406-.0313.2002.04.3691.126.5098.2588.1396.1318.2373.3037.2939.5156.0566.21.0576.4072.0029.5928-.0547.1846-.1582.3438-.3115.4785-.1514.1348-.3418.2324-.5713.2939l-.957.2568L46.6842 41.6489zM48.0758 43.1049c.21-.0557.3623-.1602.457-.3105.0938-.1504.1143-.3281.0605-.5273-.0537-.2012-.1602-.3428-.3164-.4268-.1572-.085-.3418-.0977-.5508-.042l-.4473.1201.3506 1.3066L48.0758 43.1049z"/></g><g><path fill="#EC5B53" d="M56.2359,27.0913c-0.5645,0-1.0615-0.3818-1.209-0.9268l-0.9834-3.6719
			c-0.0869-0.3223-0.042-0.6602,0.125-0.9492s0.4365-0.4961,0.7598-0.583l17.3311-4.6445c0.6611-0.1758,1.3564,0.2344,1.5322,0.8838
			l0.9834,3.6719c0.0869,0.3223,0.042,0.6602-0.125,0.9492s-0.4365,0.4961-0.7598,0.583l-17.3311,4.6445
			C56.4537,27.0766,56.3443,27.0913,56.2359,27.0913z M72.5826,17.0737c-0.0391,0-0.0781,0.0059-0.1162,0.0156l-17.3311,4.6445
			c-0.1162,0.0313-0.2139,0.1055-0.2734,0.21c-0.0605,0.1045-0.0762,0.2256-0.0449,0.3418l0.9834,3.6709
			c0.0635,0.2344,0.3174,0.3799,0.5518,0.3184l17.3311-4.6445c0.2402-0.0645,0.3828-0.3115,0.3184-0.5518l-0.9834-3.6709
			C72.9654,17.2114,72.7867,17.0737,72.5826,17.0737z"/></g><g><path fill="#F26D5B" d="M58.0553 24.4428l-.5645-.4785-.0244.0068-.4248.1143.1572.5869-.4873.1299-.5654-2.1074.9121-.2441c.1875-.0498.3584-.0625.5127-.0371s.2832.0859.3887.1797c.1035.0938.1787.2207.2197.377.043.1563.041.3008-.0039.4355-.0449.1328-.1289.249-.251.3467l.6543.5498L58.0553 24.4428zM57.4986 22.8608c-.0938-.043-.2139-.0449-.3594-.0059l-.3984.1074.1963.7354.3984-.1064c.1465-.04.249-.1016.3086-.1875.0586-.085.0723-.1836.041-.3008C57.6539 22.9838 57.5914 22.9028 57.4986 22.8608zM60.4518 23.3803l.1045.3926-1.6318.4365L58.359 22.102l1.5938-.4268.1055.3906-1.1094.2969.123.459.9795-.2617.1016.3789-.9795.2617.1309.4873L60.4518 23.3803zM60.9283 23.6264c-.1328-.0215-.251-.0703-.3545-.1484l.1846-.3984c.1553.124.3066.167.4531.1279.1992-.0537.2666-.1973.2041-.4307l-.2686-1.0029-.7412.1982-.1045-.3906 1.2256-.3281.3672 1.3672c.0684.2588.0566.4707-.0371.6338-.0938.1641-.2646.2793-.5137.3457C61.2008 23.6381 61.0631 23.6469 60.9283 23.6264zM64.1012 22.4028l.1045.3916-1.6318.4375-.5645-2.1074 1.5928-.4277.1045.3906-1.1074.2979.123.459.9785-.2627.1016.3789-.9785.2627.1299.4873L64.1012 22.4028zM64.9879 22.4741c-.1992-.0469-.3701-.1396-.5137-.2793-.1445-.1387-.2441-.3125-.2998-.5215s-.0566-.4082-.002-.6016c.0557-.1914.1572-.3594.3057-.498.1484-.1406.3311-.2383.5479-.2969.1826-.0488.3564-.0605.5215-.0371.1641.0254.3135.085.4463.1777l-.2363.373c-.1855-.126-.3848-.1602-.5957-.1035-.1309.0352-.2393.0938-.3262.1777-.0879.0859-.1455.1875-.1758.3037-.0303.1182-.0273.2422.0078.373s.0947.2393.1797.3262.1855.1455.3037.1748c.1172.0293.2422.0273.3721-.0068.2109-.0566.3652-.1885.4629-.3926l.3906.2051c-.0664.1494-.166.2764-.2979.3809-.1318.1025-.2891.1797-.4717.2285C65.3922 22.5151 65.1861 22.5209 64.9879 22.4741zM66.7525 20.2788l-.6738.1816-.1064-.3984 1.8359-.4922.1064.3984-.6738.1797.458 1.7109-.4873.1299L66.7525 20.2788zM70.1627 20.7788l.1045.3916-1.6318.4365-.5654-2.1074 1.5938-.4268.1055.3906-1.1094.2979.123.459.9795-.2627.1016.3789-.9795.2627.1309.4863L70.1627 20.7788zM70.0914 18.9584l.957-.2568c.2285-.0615.4434-.0713.6416-.0313.2002.04.3691.126.5088.2578.1396.1338.2383.3057.2949.5166.0557.2109.0566.4082.002.5918-.0547.1855-.1582.3457-.3105.4795-.1523.1348-.3428.2314-.5713.293l-.958.2568L70.0914 18.9584zM71.483 20.4155c.21-.0566.3623-.1602.4561-.3105.0938-.1523.1152-.3281.0605-.5283-.0527-.2002-.1592-.3438-.3164-.4268-.1572-.084-.3408-.0977-.5508-.041l-.4463.1191.3506 1.3066L71.483 20.4155z"/></g></svg>