<?xml version="1.0" encoding="UTF-8"?><svg xmlns="http://www.w3.org/2000/svg" xmlns:xlink="http://www.w3.org/1999/xlink" version="1.1" id="Layer_1" x="0px" y="0px" viewBox="0 0 24 24" xml:space="preserve"><path fill="#2D98D4" d="M18 2H2C.897 2 0 2.897 0 4v11c0 1.103.897 2 2 2h16c1.103 0 2-.897 2-2V4c0-1.103-.897-2-2-2z"/><path opacity="0.2" fill="#FFF" d="M18 2H2C.897 2 0 2.897 0 4v.25c0-1.103.897-2 2-2h16c1.103 0 2 .897 2 2V4c0-1.103-.897-2-2-2z"/><path fill="#E6E6E5" d="M20 14.505l-7.5-7.487L2.56 17H18c1.103 0 2-.897 2-2v-.495z"/><path fill="#F3F3F3" d="M6 10.018L.183 15.835A2.001 2.001 0 0 0 2 17h10.982L6 10.018z"/><path opacity="0.1" fill="#010101" d="M2 17h16c1.103 0 2-.897 2-2v-.25c0 1.103-.897 2-2 2H2c-1.103 0-2-.897-2-2V15c0 1.103.897 2 2 2z"/><circle id="XMLID_1322_" fill="#FFCF51" cx="8" cy="6.0181732" r="1.9818268"/><circle fill="#0097CF" cx="18.5" cy="16.5" r="5.5"/><path opacity="0.1" fill="#010101" d="M18.5 21.75a5.622 5.622 0 0 1-5.263-3.654 5.5 5.5 0 0 0 10.526 0A5.622 5.622 0 0 1 18.5 21.75z"/><path opacity="0.2" fill="#FFF" d="M18.5 11.25a5.622 5.622 0 0 1 5.263 3.654 5.5 5.5 0 0 0-10.526 0A5.622 5.622 0 0 1 18.5 11.25z"/><path fill="#FFF" d="M21.5 16l-3-3-3 3h2v4h2v-4z"/><linearGradient id="SVGID_1_" gradientUnits="userSpaceOnUse" x1="16.7976685" y1="15.2976694" x2="21.2595062" y2="19.7595062"><stop offset="0" stop-color="#010101" stop-opacity="0.1"/><stop offset="1" stop-color="#010101" stop-opacity="0"/></linearGradient><path fill="url(#SVGID_1_)" d="M21.5 16h-2v4h-2l1.917 1.917a5.5 5.5 0 0 0 4.304-3.696L21.5 16zm-4 0h-2l2 2v-2z"/><linearGradient id="SVGID_2_" gradientUnits="userSpaceOnUse" x1="-0.4902942" y1="4.6082954" x2="24.6488762" y2="16.330883"><stop offset="0" stop-color="#FFF" stop-opacity="0.2"/><stop offset="1" stop-color="#FFF" stop-opacity="0"/></linearGradient><path fill="url(#SVGID_2_)" d="M20 11.212V4c0-1.103-.897-2-2-2H2C.897 2 0 2.897 0 4v11c0 1.103.897 2 2 2h11.025A5.499 5.499 0 1 0 20 11.212z"/><metadata><rdf:RDF xmlns:rdf="http://www.w3.org/1999/02/22-rdf-syntax-ns#" xmlns:rdfs="http://www.w3.org/2000/01/rdf-schema#" xmlns:dc="http://purl.org/dc/elements/1.1/"><rdf:Description about="https://iconscout.com/legal#licenses" dc:title="photo,photography,image,picture,upload" dc:description="photo,photography,image,picture,upload" dc:publisher="Iconscout" dc:date="2017-10-30" dc:format="image/svg+xml" dc:language="en"><dc:creator><rdf:Bag><rdf:li>Those Icons</rdf:li></rdf:Bag></dc:creator></rdf:Description></rdf:RDF></metadata></svg>